<?xml version="1.0" standalone="no"?>
<!DOCTYPE svg PUBLIC "-//W3C//DTD SVG 20010904//EN"
 "http://www.w3.org/TR/2001/REC-SVG-20010904/DTD/svg10.dtd">
<svg version="1.0" xmlns="http://www.w3.org/2000/svg"
 width="592.000000pt" height="592.000000pt" viewBox="0 0 592.000000 592.000000"
 preserveAspectRatio="xMidYMid meet">
<metadata>
Created by potrace 1.14, written by Peter Selinger 2001-2017
</metadata>
<g transform="translate(0.000000,592.000000) scale(0.100000,-0.100000)"
fill="#000000" stroke="none">
<path d="M1708 5876 c-7 -13 -23 -41 -34 -62 -12 -22 -110 -193 -218 -382
-108 -189 -196 -348 -196 -353 0 -5 -4 -9 -10 -9 -5 0 -10 -4 -10 -9 0 -8
-164 -302 -190 -341 -6 -8 -16 -26 -22 -40 -7 -14 -15 -27 -19 -30 -3 -3 -16
-24 -28 -47 -12 -24 -47 -87 -78 -140 -31 -54 -67 -118 -81 -143 -34 -60 -57
-102 -74 -131 -7 -13 -15 -26 -18 -29 -3 -3 -11 -16 -18 -30 -6 -14 -20 -39
-29 -55 -46 -78 -73 -124 -101 -175 -17 -30 -64 -113 -104 -184 l-74 -129 2
-266 c1 -146 5 -567 9 -936 3 -369 7 -738 7 -822 l2 -152 25 -13 c14 -7 73
-42 131 -77 58 -35 112 -66 120 -69 8 -3 25 -14 38 -26 13 -12 24 -19 25 -17
1 3 13 -2 27 -11 95 -59 352 -208 360 -208 6 0 10 -4 10 -9 0 -5 8 -11 18 -14
9 -4 35 -17 57 -31 22 -14 51 -31 65 -39 14 -8 83 -48 154 -90 70 -43 132 -77
137 -77 5 0 9 -4 9 -9 0 -5 6 -11 13 -13 7 -2 93 -50 190 -108 98 -58 192
-113 210 -124 18 -10 106 -62 197 -116 91 -53 224 -131 295 -173 72 -42 135
-80 141 -84 10 -8 31 -20 93 -55 20 -11 44 -26 55 -33 23 -16 33 -12 171 70
l100 60 0 1024 0 1023 67 121 c38 66 68 124 68 129 0 4 5 8 10 8 6 0 10 4 10
10 0 7 113 213 160 290 5 8 28 49 51 90 23 41 53 95 67 120 52 93 63 111 83
148 12 20 33 57 47 82 14 25 80 142 147 260 67 118 137 241 155 274 17 32 44
79 59 105 15 25 30 53 34 61 4 8 23 42 43 75 19 33 42 75 51 93 9 17 22 32 27
32 6 0 85 -43 176 -96 91 -53 183 -106 205 -118 118 -67 218 -125 235 -136 8
-5 38 -22 65 -38 28 -16 94 -54 147 -85 54 -31 102 -57 108 -57 5 0 10 -4 10
-9 0 -5 8 -11 18 -15 9 -3 26 -11 37 -18 10 -7 36 -23 56 -35 l36 -22 1 -993
c0 -546 1 -1008 1 -1027 1 -32 2 -33 19 -19 9 8 62 41 117 73 55 32 102 59
104 61 2 2 4 486 3 1076 0 1036 0 1073 -18 1086 -22 16 -227 136 -294 173 -25
13 -51 30 -58 37 -7 6 -17 12 -22 12 -4 0 -48 25 -97 55 -50 30 -95 55 -101
55 -7 0 -12 4 -12 9 0 5 -8 11 -17 14 -10 4 -36 17 -58 31 -22 14 -51 31 -65
39 -116 65 -296 173 -298 179 -2 4 -9 8 -15 8 -7 0 -40 18 -75 40 -34 22 -65
40 -67 40 -2 0 -38 20 -78 45 -41 25 -80 45 -86 45 -6 0 -11 4 -11 10 0 5 -11
12 -25 16 -14 3 -25 10 -25 15 0 5 -4 9 -10 9 -8 0 -75 38 -160 90 -8 5 -89
52 -180 105 -91 53 -172 100 -180 105 -14 9 -133 79 -205 120 -16 10 -77 45
-135 80 -58 34 -121 71 -140 81 -19 11 -53 30 -75 43 -22 13 -51 31 -65 38
-32 19 -72 42 -185 108 -49 29 -106 61 -125 72 -19 11 -60 35 -91 54 -31 19
-62 34 -68 34 -6 0 -11 5 -11 10 0 6 -4 10 -10 10 -5 0 -38 17 -72 38 -35 21
-83 50 -108 64 -63 35 -405 234 -463 269 -27 16 -50 29 -52 29 -2 0 -10 -11
-17 -24z"/>
<path d="M4326 2285 c-60 -36 -113 -65 -118 -65 -4 0 -8 -4 -8 -10 0 -5 -4
-10 -9 -10 -4 0 -46 -22 -92 -49 -46 -28 -117 -69 -157 -91 -39 -23 -76 -49
-80 -58 -9 -19 -9 -1368 -1 -1377 3 -3 57 25 120 63 63 38 143 85 179 106 77
43 92 53 145 87 22 14 57 34 77 43 20 10 43 25 50 33 10 13 13 156 13 705 1
378 -2 688 -5 688 -3 0 -54 -29 -114 -65z"/>
</g>
</svg>
